<svg width="426" height="130" viewBox="0 0 426 130" fill="none" xmlns="http://www.w3.org/2000/svg">
<g clip-path="url(#clip0_18_4)">
<path fill-rule="evenodd" clip-rule="evenodd" d="M82 16.5H2V24.5V25.5C2 31.0228 6.47715 35.5 12 35.5C14.9876 35.5 17.6687 34.1893 19.5 32.1144C21.3313 34.1893 24.0124 35.5 27 35.5C29.9876 35.5 32.6687 34.1893 34.5 32.1144C36.3313 34.1893 39.0124 35.5 42 35.5C44.9876 35.5 47.6687 34.1893 49.5 32.1144C51.3313 34.1893 54.0124 35.5 57 35.5C59.9876 35.5 62.6687 34.1893 64.5 32.1144C66.3313 34.1893 69.0124 35.5 72 35.5C77.5229 35.5 82 31.0228 82 25.5V24.5V16.5ZM77 24.5V21.5H7V24.5V25.5C7 28.2614 9.23858 30.5 12 30.5C14.7614 30.5 17 28.2614 17 25.5V24.5H22V25.5C22 28.2614 24.2386 30.5 27 30.5C29.7614 30.5 32 28.2614 32 25.5V24.5H37V25.5C37 28.2614 39.2386 30.5 42 30.5C44.7614 30.5 47 28.2614 47 25.5V24.5H52V25.5C52 28.2614 54.2386 30.5 57 30.5C59.7614 30.5 62 28.2614 62 25.5V24.5H67V25.5C67 28.2614 69.2386 30.5 72 30.5C74.7614 30.5 77 28.2614 77 25.5V24.5Z" fill="#FF715A"/>
<path fill-rule="evenodd" clip-rule="evenodd" d="M8.5 58.5V33.5H13.5V58.5H8.5Z" fill="#FF715A"/>
<path fill-rule="evenodd" clip-rule="evenodd" d="M70.5 58.5V33.5H75.5V58.5H70.5Z" fill="#FF715A"/>
<path fill-rule="evenodd" clip-rule="evenodd" d="M25 99.5C28.3137 99.5 31 96.8137 31 93.5C31 90.1863 28.3137 87.5 25 87.5C21.6863 87.5 19 90.1863 19 93.5C19 96.8137 21.6863 99.5 25 99.5ZM25 104.5C31.0751 104.5 36 99.5751 36 93.5C36 87.4249 31.0751 82.5 25 82.5C18.9249 82.5 14 87.4249 14 93.5C14 99.5751 18.9249 104.5 25 104.5Z" fill="#FF715A"/>
<path fill-rule="evenodd" clip-rule="evenodd" d="M76 61.5H8V90.5H14.4141C14.1443 91.4537 14 92.46 14 93.5C14 94.183 14.0622 94.8514 14.1814 95.5H8H3V90.5V61.5V56.5H8H76H81V61.5V90.5V95.5H76H69.8186C69.9378 94.8514 70 94.183 70 93.5C70 92.46 69.8557 91.4537 69.5859 90.5H76V61.5ZM48.4141 90.5H35.5859C35.8557 91.4537 36 92.46 36 93.5C36 94.183 35.9378 94.8514 35.8186 95.5H48.1814C48.0622 94.8514 48 94.183 48 93.5C48 92.46 48.1443 91.4537 48.4141 90.5Z" fill="#FF715A"/>
<path fill-rule="evenodd" clip-rule="evenodd" d="M59 99.5C62.3137 99.5 65 96.8137 65 93.5C65 90.1863 62.3137 87.5 59 87.5C55.6863 87.5 53 90.1863 53 93.5C53 96.8137 55.6863 99.5 59 99.5ZM59 104.5C65.0751 104.5 70 99.5751 70 93.5C70 87.4249 65.0751 82.5 59 82.5C52.9249 82.5 48 87.4249 48 93.5C48 99.5751 52.9249 104.5 59 104.5Z" fill="#FF715A"/>
<path d="M118.108 81.138H152.334V94H100.45V82.228L134.458 30.78H100.45V17.918H152.334V29.69L118.108 81.138ZM219.606 33.614V94H204.237V86.37C202.275 88.986 199.695 91.057 196.498 92.583C193.373 94.0363 189.958 94.763 186.252 94.763C181.528 94.763 177.35 93.782 173.717 91.82C170.083 89.7853 167.213 86.8423 165.106 82.991C163.071 79.067 162.054 74.4163 162.054 69.039V33.614H177.314V66.859C177.314 71.655 178.513 75.361 180.911 77.977C183.309 80.5203 186.579 81.792 190.721 81.792C194.935 81.792 198.242 80.5203 200.64 77.977C203.038 75.361 204.237 71.655 204.237 66.859V33.614H219.606ZM247.197 42.334C249.159 39.5727 251.848 37.2837 255.263 35.467C258.751 33.5777 262.712 32.633 267.144 32.633C272.304 32.633 276.954 33.9047 281.096 36.448C285.311 38.9913 288.617 42.6247 291.015 47.348C293.486 51.9987 294.721 57.4123 294.721 63.589C294.721 69.7657 293.486 75.252 291.015 80.048C288.617 84.7713 285.311 88.441 281.096 91.057C276.954 93.673 272.304 94.981 267.144 94.981C262.712 94.981 258.788 94.0727 255.372 92.256C252.03 90.4393 249.305 88.1503 247.197 85.389V122.776H231.937V33.614H247.197V42.334ZM279.134 63.589C279.134 59.9557 278.371 56.831 276.845 54.215C275.392 51.5263 273.43 49.4917 270.959 48.111C268.561 46.7303 265.945 46.04 263.111 46.04C260.35 46.04 257.734 46.7667 255.263 48.22C252.865 49.6007 250.903 51.6353 249.377 54.324C247.924 57.0127 247.197 60.1737 247.197 63.807C247.197 67.4403 247.924 70.6013 249.377 73.29C250.903 75.9787 252.865 78.0497 255.263 79.503C257.734 80.8837 260.35 81.574 263.111 81.574C265.945 81.574 268.561 80.8473 270.959 79.394C273.43 77.9407 275.392 75.8697 276.845 73.181C278.371 70.4923 279.134 67.295 279.134 63.589ZM318.345 42.334C320.307 39.5727 322.996 37.2837 326.411 35.467C329.899 33.5777 333.86 32.633 338.292 32.633C343.452 32.633 348.102 33.9047 352.244 36.448C356.459 38.9913 359.765 42.6247 362.163 47.348C364.634 51.9987 365.869 57.4123 365.869 63.589C365.869 69.7657 364.634 75.252 362.163 80.048C359.765 84.7713 356.459 88.441 352.244 91.057C348.102 93.673 343.452 94.981 338.292 94.981C333.86 94.981 329.936 94.0727 326.52 92.256C323.178 90.4393 320.453 88.1503 318.345 85.389V122.776H303.085V33.614H318.345V42.334ZM350.282 63.589C350.282 59.9557 349.519 56.831 347.993 54.215C346.54 51.5263 344.578 49.4917 342.107 48.111C339.709 46.7303 337.093 46.04 334.259 46.04C331.498 46.04 328.882 46.7667 326.411 48.22C324.013 49.6007 322.051 51.6353 320.525 54.324C319.072 57.0127 318.345 60.1737 318.345 63.807C318.345 67.4403 319.072 70.6013 320.525 73.29C322.051 75.9787 324.013 78.0497 326.411 79.503C328.882 80.8837 331.498 81.574 334.259 81.574C337.093 81.574 339.709 80.8473 342.107 79.394C344.578 77.9407 346.54 75.8697 347.993 73.181C349.519 70.4923 350.282 67.295 350.282 63.589ZM389.493 13.34V94H374.233V13.34H389.493ZM408.494 26.42C405.806 26.42 403.553 25.5843 401.736 23.913C399.992 22.169 399.12 20.0253 399.12 17.482C399.12 14.9387 399.992 12.8313 401.736 11.16C403.553 9.416 405.806 8.544 408.494 8.544C411.183 8.544 413.399 9.416 415.143 11.16C416.96 12.8313 417.868 14.9387 417.868 17.482C417.868 20.0253 416.96 22.169 415.143 23.913C413.399 25.5843 411.183 26.42 408.494 26.42ZM416.015 33.614V94H400.755V33.614H416.015Z" fill="#1E233D"/>
</g>
<defs>
<clipPath id="clip0_18_4">
<rect width="426" height="130" fill="white"/>
</clipPath>
</defs>
</svg>
